<svg width="362" height="119" viewBox="0 0 362 119" fill="none" xmlns="http://www.w3.org/2000/svg">
<rect width="362" height="119" rx="16" fill="#171716"/>
<path d="M66.5109 73.5H59.0327C55.5843 73.5 52.4314 73.2832 49.5741 72.8497C46.7168 72.4162 44.2438 71.6674 42.155 70.6033C40.086 69.5392 38.4898 68.0712 37.3666 66.1992C36.2434 64.3074 35.6818 61.9132 35.6818 59.0165C35.6818 57.3219 35.869 55.6765 36.2434 54.0803C36.6375 52.4645 37.1203 50.957 37.6918 49.5579L44.3128 52.0704C43.9778 52.9768 43.6526 54.0212 43.3374 55.2035C43.0221 56.3662 42.8644 57.4894 42.8644 58.5732C42.8644 60.0905 43.2684 61.3122 44.0763 62.2384C44.9039 63.1645 46.0468 63.8641 47.505 64.337C48.9829 64.8099 50.6973 65.1351 52.6482 65.3124C54.6187 65.4701 56.7469 65.5489 59.0327 65.5489H66.4813C68.6686 65.5489 70.4815 65.4503 71.92 65.2533C73.3585 65.0365 74.4226 64.6621 75.1123 64.1301C75.8217 63.598 76.1764 62.8295 76.1764 61.8246C76.1764 61.2137 75.8611 60.5437 75.2305 59.8146C74.6197 59.0855 73.792 58.3268 72.7477 57.5386C71.723 56.7504 70.5998 55.9622 69.378 55.174C68.176 54.3858 66.974 53.6074 65.7719 52.8389C64.5896 52.0704 63.5354 51.3413 62.6092 50.6516C61.821 50.0604 61.22 49.3018 60.8062 48.3756C60.3924 47.4495 60.1855 46.5135 60.1855 45.5676C60.1855 44.5035 60.4318 43.5182 60.9244 42.6118C61.4368 41.6856 62.225 41.0157 63.2891 40.6018L85.7828 31.4093V39.2422L69.3189 45.9223C70.8559 46.8879 72.324 47.8337 73.7231 48.7599C75.1222 49.686 76.403 50.6417 77.5656 51.627C78.7282 52.5926 79.7431 53.6074 80.6101 54.6715C81.4771 55.7356 82.1471 56.8686 82.6201 58.0707C83.093 59.2727 83.3294 60.5634 83.3294 61.9428C83.3294 64.9183 82.6496 67.2534 81.2899 68.9481C79.9303 70.623 77.9893 71.8053 75.467 72.495C72.9644 73.165 69.979 73.5 66.5109 73.5ZM98.9066 32.2074V73.4704H91.517V32.2074H98.9066ZM113.272 65.6671C115.085 65.6671 116.779 65.5292 118.356 65.2533C119.932 64.9774 121.203 64.5045 122.169 63.8345C123.134 63.1448 123.617 62.1891 123.617 60.9674C123.617 59.7259 123.056 58.4155 121.932 57.0361C120.809 55.6568 119.282 54.2774 117.351 52.898C115.42 51.4989 113.242 50.2082 110.818 49.0259L114.218 41.932C116.405 43.0158 118.484 44.1981 120.454 45.4789C122.425 46.7598 124.179 48.1687 125.716 49.7057C127.253 51.2428 128.465 52.9276 129.351 54.7602C130.238 56.5731 130.682 58.5535 130.682 60.7013C130.682 63.7163 129.992 66.1597 128.612 68.0318C127.253 69.9038 125.302 71.2733 122.76 72.1403C120.238 73.0074 117.223 73.4409 113.715 73.4409C112.198 73.4409 110.769 73.3916 109.429 73.2931C108.109 73.1749 106.818 72.9778 105.557 72.7019V64.7804C106.838 65.0365 108.178 65.2533 109.577 65.4306C110.996 65.5883 112.227 65.6671 113.272 65.6671ZM146.761 49.5875C148.574 49.5875 150.19 50.0013 151.609 50.8289C153.027 51.6566 154.239 52.7995 155.244 54.2577C156.249 55.7159 157.047 57.4105 157.638 59.3417C158.23 61.2728 158.584 63.3419 158.703 65.5489H161.185V73.5H158.171C157.481 76.3573 156.318 78.8402 154.683 80.9486C153.047 83.0768 150.889 84.8503 148.209 86.2691C145.53 87.7076 142.249 88.8012 138.367 89.55L135.677 82.2788C138.258 81.7664 140.603 81.0964 142.712 80.2688C144.84 79.4609 146.623 78.4855 148.062 77.3426C149.5 76.1996 150.466 74.9188 150.958 73.5H147.825C143.884 73.5 140.889 72.6822 138.84 71.0467C136.79 69.4111 135.765 66.8002 135.765 63.2138C135.765 61.7556 135.992 60.2383 136.445 58.6618C136.899 57.0657 137.578 55.5878 138.485 54.2281C139.411 52.8487 140.554 51.7354 141.914 50.8881C143.293 50.021 144.909 49.5875 146.761 49.5875ZM147.737 65.5489H151.786C151.707 64.5242 151.55 63.5291 151.313 62.5635C151.077 61.5979 150.751 60.7211 150.338 59.9328C149.944 59.1446 149.441 58.5338 148.83 58.1002C148.239 57.647 147.53 57.4204 146.702 57.4204C145.717 57.4204 144.929 57.7357 144.337 58.3663C143.766 58.9771 143.362 59.7062 143.125 60.5536C142.889 61.4009 142.771 62.1891 142.771 62.9182C142.771 64.0217 143.214 64.741 144.101 65.0759C144.988 65.3912 146.2 65.5489 147.737 65.5489ZM160.003 65.5489H165.53V73.5H160.003V65.5489ZM173.363 53.7256L180.28 52.898L180.871 61.056C180.93 62.0807 181.137 62.9281 181.492 63.598C181.866 64.268 182.408 64.7607 183.118 65.0759C183.827 65.3912 184.733 65.5489 185.837 65.5489H186.458V73.5H185.778C184.438 73.5 183.236 73.3325 182.172 72.9975C181.108 72.6625 180.172 72.1994 179.364 71.6083C178.556 71.0171 177.856 70.3274 177.265 69.5392C176.102 70.8004 174.684 71.7758 173.009 72.4655C171.353 73.1552 169.59 73.5 167.718 73.5H164.88V65.5489H167.718C169.944 65.5489 171.491 65.1449 172.358 64.337C173.225 63.5291 173.659 62.1004 173.659 60.0511C173.659 58.9476 173.629 57.8736 173.57 56.8292C173.531 55.7651 173.462 54.7306 173.363 53.7256ZM173.984 77.4608L178.861 82.3083L173.984 87.215L169.107 82.3083L173.984 77.4608ZM163.993 77.4608L168.93 82.3083L163.993 87.215L159.175 82.3083L163.993 77.4608ZM195.295 45.9223C196.833 46.8879 198.301 47.8337 199.7 48.7599C201.099 49.686 202.38 50.6417 203.542 51.627C204.705 52.5926 205.72 53.6074 206.587 54.6715C207.454 55.7356 208.124 56.8686 208.597 58.0707C209.07 59.2727 209.306 60.5634 209.306 61.9428C209.306 64.9183 208.626 67.2534 207.267 68.9481C205.907 70.623 203.966 71.8053 201.444 72.495C198.941 73.165 195.956 73.5 192.487 73.5H185.275V65.5489H192.458C194.645 65.5489 196.448 65.4503 197.867 65.2533C199.306 65.0365 200.379 64.6621 201.089 64.1301C201.798 63.598 202.153 62.8295 202.153 61.8246C202.153 61.2137 201.838 60.5437 201.207 59.8146C200.577 59.0855 199.749 58.3268 198.724 57.5386C197.7 56.7504 196.576 55.9622 195.355 55.174C194.153 54.3858 192.951 53.6074 191.749 52.8389C190.566 52.0704 189.502 51.3413 188.556 50.6516C187.788 50.0604 187.197 49.3018 186.783 48.3756C186.369 47.4495 186.162 46.5135 186.162 45.5676C186.162 44.5232 186.408 43.538 186.901 42.6118C187.413 41.6856 188.192 41.0157 189.236 40.6018L211.759 31.4093V39.2422L195.295 45.9223ZM224.883 32.2074V73.4704H217.494V32.2074H224.883ZM239.248 65.6671C241.061 65.6671 242.756 65.5292 244.332 65.2533C245.909 64.9774 247.18 64.5045 248.145 63.8345C249.111 63.1448 249.594 62.1891 249.594 60.9674C249.594 59.7259 249.032 58.4155 247.909 57.0361C246.786 55.6568 245.259 54.2774 243.327 52.898C241.396 51.4989 239.219 50.2082 236.795 49.0259L240.194 41.932C242.382 43.0158 244.46 44.1981 246.431 45.4789C248.402 46.7598 250.155 48.1687 251.692 49.7057C253.229 51.2428 254.441 52.9276 255.328 54.7602C256.215 56.5731 256.658 58.5535 256.658 60.7013C256.658 63.7163 255.968 66.1597 254.589 68.0318C253.229 69.9038 251.279 71.2733 248.737 72.1403C246.214 73.0074 243.199 73.4409 239.692 73.4409C238.174 73.4409 236.746 73.3916 235.406 73.2931C234.086 73.1749 232.795 72.9778 231.534 72.7019V64.7804C232.815 65.0365 234.155 65.2533 235.554 65.4306C236.972 65.5883 238.204 65.6671 239.248 65.6671Z" fill="white"/>
<path d="M301.325 30.356C317.145 30.356 329.97 43.1809 329.97 59.0005C329.97 74.8199 317.145 87.644 301.325 87.644C285.506 87.6438 272.682 74.8198 272.682 59.0005C272.682 43.181 285.506 30.3562 301.325 30.356ZM308.256 42.8208C306.54 42.3754 304.726 42.4943 303.082 43.1597C301.439 43.8251 300.053 45.0021 299.13 46.5161C298.018 48.3062 297.651 50.4609 298.11 52.5181C298.528 54.6004 299.725 56.4447 301.457 57.6733C300.539 57.7856 299.712 57.9183 298.885 57.9897C297.094 58.1617 295.288 58.0931 293.516 57.7856C291.051 57.3285 288.716 56.3352 286.677 54.8765L285.503 53.9878L285.074 53.7329C284.401 53.3859 284.053 53.5287 283.849 54.2534C283.756 54.5876 283.692 54.929 283.656 55.2739C282.998 59.4764 283.898 63.7747 286.187 67.3599C288.064 70.1489 290.719 72.3254 293.823 73.6177C296.805 74.9987 300.086 75.6127 303.366 75.4038C306.522 75.276 309.568 74.2096 312.115 72.3413C313.207 71.4705 314.106 70.382 314.755 69.145C315.404 67.908 315.79 66.5495 315.886 65.1558C315.982 63.7619 315.786 62.3628 315.313 61.0483C314.839 59.734 314.098 58.5324 313.135 57.52C313.094 57.4792 313.064 57.4279 313.013 57.3667C313.513 57.2545 314.033 57.163 314.533 57.0405C315.765 56.7773 316.922 56.2431 317.922 55.478C318.321 55.1453 318.666 54.7533 318.944 54.3149C319.066 54.1718 319.149 53.9989 319.185 53.814C319.221 53.6291 319.209 53.438 319.15 53.2593C319.09 53.0805 318.985 52.9197 318.845 52.7935C318.705 52.6673 318.535 52.5796 318.351 52.5386C317.589 52.2427 316.779 52.0902 315.962 52.0894H314.442C314.616 50.9231 314.541 49.7331 314.221 48.5981C313.901 47.4631 313.343 46.4084 312.584 45.5054C311.472 44.1637 309.952 43.2212 308.256 42.8208ZM289.912 60.0513C289.958 60.1531 290.012 60.3523 290.077 60.6108L289.912 60.0513Z" fill="white"/>
</svg>
