<svg width="24" xmlns="http://www.w3.org/2000/svg" height="24" id="screenshot-f24e8345-cf71-80cb-8007-dd401b09b4e4" viewBox="0 0 24 24" xmlns:xlink="http://www.w3.org/1999/xlink" fill="none" version="1.1"><g id="shape-f24e8345-cf71-80cb-8007-dd401b09b4e4"><g class="frame-container-wrapper"><g class="frame-container-blur"><g class="frame-container-shadows"><g fill="none"><g class="fills" id="fills-f24e8345-cf71-80cb-8007-dd401b09b4e4"><rect rx="0" ry="0" x="0" y="0" width="24" height="24" transform="matrix(1.000000, 0.000000, 0.000000, 1.000000, 0.000000, 0.000000)" class="frame-background"/></g><g class="frame-children"><g id="shape-f24e8345-cf71-80cb-8007-dd401b111fc8" style="display: none;"><g class="fills" id="fills-f24e8345-cf71-80cb-8007-dd401b111fc8"><rect width="24" height="24" x="0" stroke-linejoin="round" transform="matrix(1.000000, 0.000000, 0.000000, 1.000000, 0.000000, 0.000000)" style="fill: none;" ry="0" fill="none" stroke-linecap="round" rx="0" y="0"/></g><g fill="none" stroke-linejoin="round" stroke-linecap="round" id="strokes-29769753-13c7-8047-8007-dd40a756f1b9-f24e8345-cf71-80cb-8007-dd401b111fc8" class="strokes"><g class="stroke-shape"><rect rx="0" ry="0" x="0" y="0" transform="matrix(1.000000, 0.000000, 0.000000, 1.000000, 0.000000, 0.000000)" width="24" height="24" style="fill: none; stroke-width: 2; stroke: rgb(0, 0, 0); stroke-opacity: 1;"/></g></g></g><g id="shape-f24e8345-cf71-80cb-8007-dd401b111fc9"><g class="fills" id="fills-f24e8345-cf71-80cb-8007-dd401b111fc9"><path d="M7,20L17,20" fill="none" stroke-linecap="round" stroke-linejoin="round" style="fill: none;"/></g><g fill="none" stroke-linecap="round" stroke-linejoin="round" id="strokes-29769753-13c7-8047-8007-dd40a7574652-f24e8345-cf71-80cb-8007-dd401b111fc9" class="strokes"><g class="stroke-shape"><path d="M7,20L17,20" style="fill: none; stroke-width: 2; stroke: rgb(186, 194, 207); stroke-opacity: 1;"/></g></g></g><g id="shape-f24e8345-cf71-80cb-8007-dd401b111fca"><g class="fills" id="fills-f24e8345-cf71-80cb-8007-dd401b111fca"><path d="M10,20C15.5,17.5,10.79998779296875,13.599609375,13,10" fill="none" stroke-linecap="round" stroke-linejoin="round" style="fill: none;"/></g><g fill="none" stroke-linecap="round" stroke-linejoin="round" id="strokes-29769753-13c7-8047-8007-dd40a757ad50-f24e8345-cf71-80cb-8007-dd401b111fca" class="strokes"><g class="stroke-shape"><path d="M10,20C15.5,17.5,10.79998779296875,13.599609375,13,10" style="fill: none; stroke-width: 2; stroke: rgb(186, 194, 207); stroke-opacity: 1;"/></g></g></g><g id="shape-f24e8345-cf71-80cb-8007-dd401b111fcb"><g class="fills" id="fills-f24e8345-cf71-80cb-8007-dd401b111fcb"><path d="M9.5,9.400390625C10.600006103515625,10.2001953125,11.29998779296875,11.599609375,11.79998779296875,13.099609375C9.79998779296875,13.5,8.29998779296875,13.5,7,12.7998046875C5.79998779296875,12.2001953125,4.70001220703125,10.900390625,4,8.599609375C6.79998779296875,8.099609375,8.399993896484375,8.599609375,9.5,9.400390625Z" fill="none" stroke-linecap="round" stroke-linejoin="round" style="fill: none;"/></g><g fill="none" stroke-linecap="round" stroke-linejoin="round" id="strokes-29769753-13c7-8047-8007-dd40a757cb74-f24e8345-cf71-80cb-8007-dd401b111fcb" class="strokes"><g class="stroke-shape"><path d="M9.5,9.400390625C10.600006103515625,10.2001953125,11.29998779296875,11.599609375,11.79998779296875,13.099609375C9.79998779296875,13.5,8.29998779296875,13.5,7,12.7998046875C5.79998779296875,12.2001953125,4.70001220703125,10.900390625,4,8.599609375C6.79998779296875,8.099609375,8.399993896484375,8.599609375,9.5,9.400390625Z" style="fill: none; stroke-width: 2; stroke: rgb(186, 194, 207); stroke-opacity: 1;"/></g></g></g><g id="shape-f24e8345-cf71-80cb-8007-dd401b111fcc"><g class="fills" id="fills-f24e8345-cf71-80cb-8007-dd401b111fcc"><path d="M14.100006103515625,6C13.33758544921875,7.19140625,12.954071044921875,8.5859375,13,10C14.899993896484375,9.900390625,16.29998779296875,9.400390625,17.29998779296875,8.599609375C18.29998779296875,7.599609375,18.899993896484375,6.2998046875,19,4C16.29998779296875,4.099609375,15,5,14.100006103515625,6Z" fill="none" stroke-linecap="round" stroke-linejoin="round" style="fill: none;"/></g><g fill="none" stroke-linecap="round" stroke-linejoin="round" id="strokes-29769753-13c7-8047-8007-dd40a7584390-f24e8345-cf71-80cb-8007-dd401b111fcc" class="strokes"><g class="stroke-shape"><path d="M14.100006103515625,6C13.33758544921875,7.19140625,12.954071044921875,8.5859375,13,10C14.899993896484375,9.900390625,16.29998779296875,9.400390625,17.29998779296875,8.599609375C18.29998779296875,7.599609375,18.899993896484375,6.2998046875,19,4C16.29998779296875,4.099609375,15,5,14.100006103515625,6Z" style="fill: none; stroke-width: 2; stroke: rgb(186, 194, 207); stroke-opacity: 1;"/></g></g></g></g></g></g></g></g></g></svg>